<svg width="121" height="26" viewBox="0 0 121 26" fill="none" xmlns="http://www.w3.org/2000/svg">
<g clip-path="url(#clip0_4078_86)">
<path fill-rule="evenodd" clip-rule="evenodd" d="M17.1648 19.8402L18.0012 21.3902H3.86308L2.40945 24.0002H22.4417L20.082 19.8402H24.7516L14.7554 2.08023V2.04023L6.22274 17.2302H4.43059L10.046 7.21023L10.4642 7.89023L11.9278 5.33023L10.046 1.99023L0 19.8402H7.67638L12.4455 11.4202L15.1337 16.2602L18.0509 16.2102L13.9091 8.81024L14.7554 7.26023L20.3608 17.2302V17.2702H10.6533L9.18975 19.8402H17.1648Z" fill="#CC2029"/>
<path fill-rule="evenodd" clip-rule="evenodd" d="M96.1588 18.9998V19.0598C96.1588 19.1798 96.2484 19.2398 96.4177 19.2398H100.102C100.181 19.2483 100.261 19.2291 100.328 19.1854C100.395 19.1417 100.445 19.0762 100.47 18.9998L102.611 10.6898C102.611 10.5298 102.77 10.4498 102.979 10.4498H105.538C105.856 10.4498 106.016 10.2098 106.016 9.74982C106.016 9.62982 105.936 9.56982 105.767 9.56982H94.5857C94.4762 9.56982 94.4164 9.56982 94.4164 9.64982C94.5864 9.87037 94.7728 10.0776 94.974 10.2698C95.0335 10.3332 95.1065 10.3823 95.1875 10.4135C95.2685 10.4446 95.3555 10.4571 95.4419 10.4498H98.0704C98.2397 10.4498 98.3193 10.5098 98.3193 10.6498L96.1588 18.9998Z" fill="#CC2029"/>
<path fill-rule="evenodd" clip-rule="evenodd" d="M87.1881 19.22H90.872C90.9518 19.2305 91.0327 19.2121 91.1002 19.1682C91.1677 19.1242 91.2174 19.0575 91.2404 18.98L93.5901 9.81004V9.75004C93.5901 9.61004 93.5104 9.54004 93.3511 9.54004H88.6119C88.4924 9.54004 88.4327 9.54004 88.4327 9.64004C88.4327 9.74004 88.5422 9.81004 88.7612 10.02C88.9395 10.1563 89.0574 10.3574 89.0898 10.58V10.68L86.9392 19C86.9392 19.16 87.0288 19.22 87.1881 19.22Z" fill="#CC2029"/>
<path fill-rule="evenodd" clip-rule="evenodd" d="M117.814 9.53996H116.261C116.169 9.54025 116.079 9.56105 115.996 9.60083C115.913 9.64061 115.841 9.69839 115.783 9.76996L113.105 12.84C113.089 12.8691 113.066 12.8937 113.038 12.9112C113.01 12.9288 112.978 12.9387 112.945 12.94C112.945 12.94 112.856 12.94 112.836 12.84L111.77 9.76996C111.742 9.69465 111.689 9.63106 111.621 9.58937C111.552 9.54767 111.472 9.53027 111.392 9.53996H106.623C106.504 9.53996 106.444 9.56996 106.444 9.62996L106.812 10.05C106.987 10.2306 107.144 10.4282 107.28 10.64L109.142 14.64C109.179 14.7129 109.226 14.7803 109.281 14.84C109.295 14.9261 109.295 15.0138 109.281 15.1L108.286 19.1C108.286 19.24 108.375 19.31 108.545 19.31L112.189 19.26C112.263 19.2577 112.334 19.231 112.392 19.184C112.449 19.137 112.49 19.0724 112.507 19L113.503 15.1C113.549 14.9213 113.638 14.7565 113.762 14.62L117.963 9.78996C117.992 9.75482 118.012 9.71386 118.023 9.66996C118.023 9.59996 117.963 9.55996 117.854 9.55996L117.814 9.53996ZM68.1316 19.22H71.8155C71.8925 19.2297 71.9706 19.2134 72.0373 19.1736C72.104 19.1337 72.1556 19.0726 72.1838 19L74.5535 9.82996V9.74996C74.5535 9.60996 74.4738 9.53996 74.3245 9.53996H69.5554C69.4458 9.53996 69.3861 9.53996 69.3861 9.64996C69.4715 9.78109 69.5755 9.899 69.6947 9.99996C69.7856 10.0658 69.8624 10.1492 69.9206 10.2454C69.9788 10.3416 70.0171 10.4486 70.0333 10.56V10.66L67.8827 19C67.8827 19.12 67.9623 19.18 68.1316 19.18V19.22ZM76.0171 9.99996C75.8828 9.90306 75.7651 9.78485 75.6686 9.64996C75.6686 9.57996 75.7283 9.53996 75.8478 9.53996H80.6468C80.7276 9.53145 80.809 9.54797 80.8802 9.58729C80.9514 9.62662 81.0089 9.68687 81.045 9.75996L83.4744 15.93C83.4744 15.98 83.4744 16 83.554 16.03C83.6337 16.06 83.6138 16.03 83.6337 15.91L85.1471 9.79996C85.164 9.71766 85.2115 9.64493 85.2799 9.59662C85.3484 9.5483 85.4326 9.52804 85.5154 9.53996H87.0587C87.218 9.53996 87.3076 9.60996 87.3076 9.74996V9.80996L84.9181 19C84.897 19.0786 84.8477 19.1465 84.7797 19.1908C84.7117 19.2351 84.6297 19.2526 84.5497 19.24H80.8658C80.6567 19.24 80.5273 19.17 80.4775 19.02L78.0282 12.85C78.0128 12.8117 77.9846 12.7799 77.9486 12.76C77.9486 12.76 77.8988 12.76 77.8689 12.89L76.3456 19C76.3226 19.0774 76.2729 19.1441 76.2054 19.1881C76.1379 19.2321 76.057 19.2505 75.9772 19.24H74.434C74.2747 19.24 74.1851 19.18 74.1851 19.06V19L76.3456 10.7V10.6C76.3317 10.4891 76.2954 10.3822 76.2389 10.2859C76.1824 10.1896 76.1069 10.1059 76.0171 10.04V9.99996ZM68.2013 10.41H63.462C63.253 10.41 63.1335 10.49 63.0937 10.65C62.566 12.65 62.2971 13.7 62.2971 13.73C62.2971 13.76 62.3868 13.93 62.556 13.93H67.2953C67.4048 13.93 67.4546 13.93 67.4546 13.99C67.4546 14.05 67.4546 14.05 67.345 14.09L66.5684 14.62C66.4052 14.7431 66.205 14.8066 66.0009 14.8H62.327C62.1179 14.8 61.9885 14.89 61.9586 15.06L60.963 18.96C60.94 19.0374 60.8903 19.1041 60.8228 19.1481C60.7553 19.1921 60.6744 19.2105 60.5946 19.2H56.9107C56.7415 19.2 56.6618 19.14 56.6618 19.02V19L58.8224 10.7V10.6C58.79 10.3773 58.6721 10.1763 58.4938 10.04C58.365 9.93539 58.254 9.81041 58.1652 9.66996C58.1652 9.59996 58.225 9.55996 58.3345 9.55996H68.4402C68.6095 9.55996 68.6891 9.62996 68.6891 9.76996C68.6891 10.22 68.5299 10.45 68.2013 10.45V10.41ZM37.8343 19.22C37.665 19.22 37.5854 19.16 37.5854 19.04V19L39.7459 10.7V10.6C39.7136 10.3773 39.5956 10.1763 39.4174 10.04C39.2885 9.93539 39.1776 9.81041 39.0888 9.66996C39.0888 9.59996 39.1485 9.55996 39.268 9.55996H44.0371C44.1865 9.55996 44.2562 9.62996 44.2562 9.76996V9.82996L41.8865 19C41.8638 19.0755 41.8156 19.1408 41.7502 19.1846C41.6848 19.2284 41.6063 19.248 41.5281 19.24L37.8343 19.22ZM45.7297 9.99996C45.908 10.1363 46.0259 10.3373 46.0583 10.56V10.66L43.8977 19C43.8977 19.12 43.9774 19.18 44.1466 19.18H45.6899C45.7697 19.1905 45.8506 19.1721 45.9181 19.1281C45.9856 19.0841 46.0353 19.0174 46.0583 18.94L47.5816 12.83C47.5816 12.75 47.6314 12.7 47.6613 12.7C47.6973 12.7199 47.7254 12.7517 47.7409 12.79L50.1902 19C50.1902 19.15 50.3694 19.22 50.5685 19.22H54.2623C54.3412 19.2323 54.4217 19.2145 54.4881 19.17C54.5544 19.1256 54.6018 19.0578 54.6208 18.98L57.0003 9.80996V9.74996C57.0003 9.60996 56.9107 9.53996 56.7514 9.53996H55.2182C55.0091 9.53996 54.8896 9.62996 54.8597 9.79996L53.3165 15.91C53.3165 15.99 53.3165 16.03 53.2368 16.03C53.2001 16.0063 53.1721 15.9712 53.1572 15.93L50.7776 9.75996C50.7409 9.68511 50.6818 9.62366 50.6086 9.58421C50.5354 9.54476 50.4518 9.52929 50.3694 9.53996H45.5704C45.4609 9.53996 45.4012 9.53996 45.4012 9.64996C45.4916 9.7833 45.6025 9.90142 45.7297 9.99996Z" fill="#868787"/>
<path fill-rule="evenodd" clip-rule="evenodd" d="M120.871 7.77009C120.843 8.0836 120.699 8.37527 120.468 8.58771C120.236 8.80014 119.934 8.91795 119.621 8.91795C119.308 8.91795 119.006 8.80014 118.774 8.58771C118.543 8.37527 118.399 8.0836 118.372 7.77009C118.356 7.59586 118.377 7.42031 118.433 7.25459C118.488 7.08888 118.578 6.93664 118.695 6.80757C118.813 6.67849 118.956 6.57541 119.115 6.50489C119.275 6.43437 119.447 6.39795 119.621 6.39795C119.795 6.39795 119.967 6.43437 120.127 6.50489C120.286 6.57541 120.429 6.67849 120.547 6.80757C120.664 6.93664 120.754 7.08888 120.81 7.25459C120.865 7.42031 120.886 7.59586 120.871 7.77009Z" stroke="#030303" stroke-width="0.25"/>
<path d="M119.477 7.71002H119.795C119.827 7.72233 119.863 7.72233 119.895 7.71002C119.927 7.66675 119.945 7.61411 119.945 7.56002C119.945 7.50593 119.927 7.45329 119.895 7.41002C119.867 7.37674 119.828 7.35529 119.785 7.35002H119.477V7.76002V7.71002ZM119.128 8.50002V7.00002H119.805C119.868 6.98958 119.932 6.98958 119.994 7.00002C120.055 7.02834 120.11 7.06923 120.154 7.12002C120.196 7.16707 120.23 7.22123 120.253 7.28002C120.267 7.34256 120.267 7.40748 120.253 7.47002C120.258 7.51322 120.258 7.55682 120.253 7.60002C120.257 7.63992 120.257 7.68012 120.253 7.72002C120.236 7.7571 120.212 7.79092 120.184 7.82002L120.074 7.90002L120.423 8.46002H120.034L119.736 7.98002H119.477V8.50002H119.128Z" fill="#231F20"/>
<path d="M31.1635 0V26" stroke="#868787" stroke-width="0.3"/>
</g>
<defs>
<clipPath id="clip0_4078_86">
<rect width="121" height="26" fill="white"/>
</clipPath>
</defs>
</svg>
