<svg width="114" height="16" viewBox="0 0 114 16" fill="none" xmlns="http://www.w3.org/2000/svg">
<path d="M112.707 8.70711C113.098 8.31658 113.098 7.68342 112.707 7.29289L106.343 0.928932C105.953 0.538408 105.319 0.538408 104.929 0.928932C104.538 1.31946 104.538 1.95262 104.929 2.34315L110.586 8L104.929 13.6569C104.538 14.0474 104.538 14.6805 104.929 15.0711C105.319 15.4616 105.953 15.4616 106.343 15.0711L112.707 8.70711ZM2 9H3.96429V7H2V9ZM6.91071 9H10.8393V7H6.91071V9ZM13.7857 9H17.7143V7H13.7857V9ZM20.6607 9H24.5893V7H20.6607V9ZM27.5357 9H31.4643V7H27.5357V9ZM34.4107 9H38.3393V7H34.4107V9ZM41.2857 9H45.2143V7H41.2857V9ZM48.1607 9H52.0893V7H48.1607V9ZM55.0357 9H58.9643V7H55.0357V9ZM61.9107 9H65.8393V7H61.9107V9ZM68.7857 9H72.7143V7H68.7857V9ZM75.6607 9H79.5893V7H75.6607V9ZM82.5357 9H86.4643V7H82.5357V9ZM89.4107 9H93.3393V7H89.4107V9ZM96.2857 9H100.214V7H96.2857V9ZM103.161 9H107.089V7H103.161V9ZM110.036 9H112V7H110.036V9ZM112.707 8.70711C113.098 8.31658 113.098 7.68342 112.707 7.29289L106.343 0.928932C105.953 0.538408 105.319 0.538408 104.929 0.928932C104.538 1.31946 104.538 1.95262 104.929 2.34315L110.586 8L104.929 13.6569C104.538 14.0474 104.538 14.6805 104.929 15.0711C105.319 15.4616 105.953 15.4616 106.343 15.0711L112.707 8.70711ZM2 9H3.96429V7H2V9ZM6.91071 9H10.8393V7H6.91071V9ZM13.7857 9H17.7143V7H13.7857V9ZM20.6607 9H24.5893V7H20.6607V9ZM27.5357 9H31.4643V7H27.5357V9ZM34.4107 9H38.3393V7H34.4107V9ZM41.2857 9H45.2143V7H41.2857V9ZM48.1607 9H52.0893V7H48.1607V9ZM55.0357 9H58.9643V7H55.0357V9ZM61.9107 9H65.8393V7H61.9107V9ZM68.7857 9H72.7143V7H68.7857V9ZM75.6607 9H79.5893V7H75.6607V9ZM82.5357 9H86.4643V7H82.5357V9ZM89.4107 9H93.3393V7H89.4107V9ZM96.2857 9H100.214V7H96.2857V9ZM103.161 9H107.089V7H103.161V9ZM110.036 9H112V7H110.036V9Z" fill="#1E6EE7"/>
</svg>
